<svg width="24" height="20" viewBox="0 0 24 20" fill="none" xmlns="http://www.w3.org/2000/svg">
<path fill-rule="evenodd" clip-rule="evenodd" d="M7.07831 5.65315L1.96326 4.19173C1.28494 3.9979 1.28611 3.03302 1.96326 2.83957L11.807 0.0270703C11.9332 -0.00902344 12.0671 -0.00902344 12.1933 0.0270703L22.0371 2.83957C22.7154 3.0334 22.7142 3.99827 22.0371 4.19173L19.7345 4.84957V10.5469C19.7345 10.9352 19.4197 11.25 19.0314 11.25C18.6431 11.25 18.3283 10.9352 18.3283 10.5469V5.25138L16.922 5.65315V9.14065C16.922 9.40699 16.7715 9.65046 16.5333 9.76957L13.4239 11.3243C13.0793 11.4966 12.7638 11.7186 12.486 11.9841C12.2143 12.244 11.7861 12.244 11.5143 11.9841C11.2365 11.7186 10.921 11.4966 10.5764 11.3243L7.467 9.76957C7.22878 9.65041 7.07831 9.40699 7.07831 9.14065V5.65315ZM12.795 10.0664L15.5158 8.70607V6.05491L12.1933 7.00418C12.0666 7.04041 11.9328 7.04009 11.807 7.00418L8.48456 6.05491V8.70607L11.2053 10.0664C11.4851 10.2063 11.7509 10.3702 12.0002 10.5565C12.2495 10.3702 12.5152 10.2063 12.795 10.0664ZM19.2845 3.51565L12.0002 1.4344L4.71586 3.51565L12.0002 5.5969L19.2845 3.51565ZM22.5469 16.8751H23.2969C23.6852 16.8751 24 17.1899 24 17.5782C24 17.9665 23.6852 18.2813 23.2969 18.2813H16.6507C15.2197 18.2813 14.0989 18.5984 13.3196 19.2238C12.5457 19.8451 11.4461 19.8385 10.6803 19.2238C9.90108 18.5984 8.78034 18.2813 7.3493 18.2813H0.703125C0.314812 18.2813 0 17.9665 0 17.5782C0 17.1899 0.314812 16.8751 0.703125 16.8751H1.45312V14.7657C1.45312 14.3774 1.76794 14.0626 2.15625 14.0626H9.1875C10.3363 14.0626 11.358 14.6165 12 15.4713C12.642 14.6165 13.6637 14.0626 14.8125 14.0626H21.8438C22.2321 14.0626 22.5469 14.3774 22.5469 14.7657V16.8751ZM2.85938 16.8751H7.3493C8.96405 16.8751 10.2894 17.231 11.2969 17.9318V17.5782C11.2969 16.4151 10.3506 15.4688 9.1875 15.4688H2.85938V16.8751ZM12.7031 17.5782V17.9318C13.7106 17.231 15.036 16.8751 16.6507 16.8751H21.1406V15.4688H14.8125C13.6494 15.4688 12.7031 16.4151 12.7031 17.5782Z" fill="#8D8D8D"/>
</svg>
