<svg width="414" height="428" viewBox="0 0 414 428" fill="none" xmlns="http://www.w3.org/2000/svg">
<g opacity="0.7">
<!-- <path fill-rule="evenodd" clip-rule="evenodd" d="M524 -92.8806C524 -47.5274 487.234 -10.7613 441.881 -10.7613C396.527 -10.7613 359.761 -47.5274 359.761 -92.8806C359.761 -138.234 396.527 -175 441.881 -175C487.234 -175 524 -138.234 524 -92.8806ZM320.657 270.791C398.406 270.791 461.433 207.763 461.433 130.014C461.433 52.266 398.406 -10.7616 320.657 -10.7616C242.909 -10.7616 179.881 52.266 179.881 130.014C179.881 207.763 242.909 270.791 320.657 270.791ZM82.1194 223.866C127.473 223.866 164.239 187.099 164.239 141.746C164.239 96.3929 127.473 59.6268 82.1194 59.6268C36.7661 59.6268 0 96.3929 0 141.746C0 187.099 36.7661 223.866 82.1194 223.866ZM441.881 427.209C487.234 427.209 524 390.443 524 345.09C524 299.737 487.234 262.971 441.881 262.971C396.527 262.971 359.761 299.737 359.761 345.09C359.761 390.443 396.527 427.209 441.881 427.209Z" fill="#F2F2F2"/> -->
<!-- <path fill-rule="evenodd" clip-rule="evenodd" d="M269.821 75.2683C276.3 75.2683 281.552 80.5206 281.552 86.9996V133.925C281.552 155.522 299.06 173.029 320.656 173.029C342.253 173.029 359.761 155.522 359.761 133.925V86.9996C359.761 80.5206 365.013 75.2683 371.492 75.2683C377.971 75.2683 383.224 80.5206 383.224 86.9996V133.925C383.224 168.48 355.211 196.492 320.656 196.492C286.102 196.492 258.089 168.48 258.089 133.925V86.9996C258.089 80.5206 263.342 75.2683 269.821 75.2683Z" fill="white"/> -->
<!-- <path fill-rule="evenodd" clip-rule="evenodd" d="M191.826 151.87L146.289 149.405L147.98 118.167L193.516 120.632L191.826 151.87Z" fill="#F2F2F2"/> -->
<!-- <path fill-rule="evenodd" clip-rule="evenodd" d="M385.264 287.848L360.361 249.645L386.568 232.561L411.471 270.765L385.264 287.848Z" fill="#F2F2F2"/> -->
<!-- <path fill-rule="evenodd" clip-rule="evenodd" d="M421.098 -18.3293L397.499 20.6935L370.73 4.50521L394.328 -34.5176L421.098 -18.3293Z" fill="#F2F2F2"/> -->
</g>
</svg>
