<svg width="18" height="19" viewBox="0 0 18 19" fill="none" xmlns="http://www.w3.org/2000/svg">
<path fill-rule="evenodd" clip-rule="evenodd" d="M0 15.9742C0.00134922 17.3525 1.11918 18.4687 2.49809 18.4707H13.6926L13.6919 18.47C15.0708 18.468 16.1887 17.3512 16.19 15.9735V11.0809C16.19 10.5848 15.7873 10.1825 15.2908 10.1825C14.7942 10.1825 14.3915 10.5848 14.3915 11.0809V15.9735C14.3915 16.359 14.0785 16.6718 13.6926 16.6725H2.49809C2.11221 16.6718 1.79987 16.359 1.79919 15.9735V4.78973C1.79919 4.4042 2.11221 4.09146 2.49809 4.09079H8.09535C8.59186 4.09079 8.9946 3.68841 8.9946 3.19234C8.9946 2.69627 8.59186 2.29389 8.09535 2.29389H2.49809C1.11918 2.29591 0.00134922 3.41274 0 4.79041V15.9742ZM9.26512 13.8969L6.07353 14.7879L6.07421 14.7886L6.08028 14.7873C6.00135 14.8102 5.9177 14.8223 5.83135 14.8223C5.33483 14.8223 4.93209 14.4199 4.93209 13.9239C4.93209 13.8538 4.93951 13.7864 4.95368 13.727L5.75107 10.1629L5.75242 10.1568C5.78682 10.0059 5.85901 9.86971 5.95817 9.75985L13.5374 1.29569L13.5395 1.29366C14.0009 0.78816 14.6654 0.470703 15.4041 0.470703C16.1428 0.470703 16.808 0.78816 17.2707 1.29569L17.268 1.29232C17.7234 1.80928 18 2.488 18 3.23143C18 3.97486 17.7234 4.65358 17.2707 5.16718L9.69283 13.6307L9.69215 13.6313C9.58084 13.7554 9.4358 13.8484 9.26512 13.8969ZM15.4034 2.24806C15.1923 2.24806 15.004 2.34309 14.8772 2.49339L7.45514 10.7843L7.03688 12.6534L8.52642 12.2375L15.9296 3.96947L15.9283 3.97149C16.0962 3.77131 16.1981 3.51384 16.1981 3.23211C16.1981 2.95037 16.0969 2.6929 15.9296 2.49474L15.9289 2.49339C15.8035 2.34309 15.6146 2.24806 15.4034 2.24806ZM4.7221 7.91105C5.46726 7.91105 6.07133 7.30753 6.07133 6.56304C6.07133 5.81855 5.46726 5.21503 4.7221 5.21503C3.97695 5.21503 3.37288 5.81855 3.37288 6.56304C3.37288 7.30753 3.97695 7.91105 4.7221 7.91105Z" fill="#8D8D8D"/>
</svg>
