<svg width="16" height="16" viewBox="0 0 16 16" fill="none" xmlns="http://www.w3.org/2000/svg">
<path d="M1.00412 9.87761V4.50459L0.826438 4.43767C0.143375 4.18033 0 3.74466 0 3.42449C3.14713e-05 3.10431 0.143437 2.66864 0.826468 2.41142L6.6715 0.210223C7.0315 0.0746509 7.50331 0 7.99994 0C8.49659 0 8.96838 0.0746509 9.32847 0.210223L15.1735 2.41142C15.8566 2.66864 16 3.10431 16 3.42453C16 3.7447 15.8566 4.18041 15.1735 4.43771L12.9875 5.26094V8.1515C12.9875 8.7023 12.7023 9.47819 11.3435 10.0468C10.4435 10.4233 9.25606 10.6307 8 10.6307C6.74397 10.6307 5.55656 10.4233 4.65656 10.0468C3.29775 9.47815 3.01253 8.7023 3.01253 8.1515V5.26098L1.94166 4.85768V9.87761C2.52459 10.124 2.94581 10.8162 2.94581 11.63V14.1511C2.94581 15.1706 2.28509 16 1.47291 16C0.660749 16 0 15.1706 0 14.1511V11.63C-3.05176e-05 10.8162 0.421187 10.124 1.00412 9.87761ZM9.05909 1.33744C8.788 1.23533 8.40197 1.1768 7.99994 1.1768C7.59797 1.1768 7.21194 1.23533 6.94088 1.3374L1.39878 3.42453L3.61828 4.2604C3.61956 4.26091 3.62081 4.26134 3.62209 4.26185L6.94084 5.51169C7.21191 5.61376 7.59791 5.67229 7.99991 5.67229C8.40191 5.67229 8.78797 5.61376 9.05903 5.51169L12.3778 4.26185C12.3791 4.26134 12.3803 4.26091 12.3816 4.2604L14.6011 3.42453L9.05909 1.33744ZM3.94997 8.15146C3.94997 8.22733 4.12019 8.58179 4.95297 8.93025C5.75991 9.26793 6.84203 9.45387 7.99997 9.45387C9.15794 9.45387 10.2401 9.26793 11.047 8.93025C11.8797 8.58179 12.05 8.22729 12.05 8.15146V5.61396L9.32844 6.63887C8.96841 6.77444 8.49659 6.84909 7.99994 6.84909C7.50331 6.84909 7.03153 6.77444 6.67147 6.63887L3.94997 5.61396V8.15146ZM0.937469 14.151C0.937469 14.5216 1.17766 14.8231 1.47287 14.8231C1.76809 14.8231 2.00828 14.5217 2.00828 14.151V11.63C2.00828 11.2594 1.76812 10.9578 1.47287 10.9578C1.17762 10.9578 0.937469 11.2594 0.937469 11.63V14.151Z" fill="#4F4F4F"/>
</svg>
