<svg width="26" height="24" viewBox="0 0 26 24" fill="none" xmlns="http://www.w3.org/2000/svg">
<path d="M18.8036 19.0994C18.7323 19.0536 18.1955 18.6816 17.658 17.5564C16.6708 15.49 16.4636 12.5792 16.4636 10.5012C16.4636 10.4921 16.4634 10.4832 16.4631 10.4742C16.4523 7.72781 14.7897 5.36034 12.4104 4.29811V2.67356C12.4104 1.19934 11.1998 0 9.71182 0H9.48817C8.00016 0 6.78957 1.19934 6.78957 2.67356V4.29802C4.40234 5.36367 2.73636 7.74323 2.73636 10.5012C2.73636 12.5792 2.52917 15.49 1.54204 17.5564C1.00456 18.6816 0.467753 19.0535 0.396381 19.0994C0.0958199 19.2369 -0.0523753 19.5548 0.0167698 19.8768C0.0865783 20.2021 0.393964 20.4263 0.729642 20.4263H5.94026C5.96936 22.4017 7.59936 24 9.60002 24C11.6007 24 13.2307 22.4017 13.2598 20.4263H18.4704C18.806 20.4263 19.1135 20.2021 19.1833 19.8768C19.2523 19.5548 19.1042 19.2369 18.8036 19.0994ZM8.21138 2.67356C8.21138 1.97602 8.78416 1.40855 9.48822 1.40855H9.71186C10.4159 1.40855 10.9887 1.97602 10.9887 2.67356V3.84155C10.54 3.74981 10.0755 3.70153 9.59983 3.70153C9.1243 3.70153 8.65995 3.74977 8.21143 3.84141V2.67356H8.21138ZM9.60002 22.5915C8.38332 22.5915 7.39088 21.625 7.36202 20.4264H11.838C11.8092 21.625 10.8167 22.5915 9.60002 22.5915ZM12.4625 19.0177C12.4624 19.0177 2.34974 19.0177 2.34974 19.0177C2.47272 18.8282 2.59789 18.6135 2.72229 18.371C3.67506 16.5127 4.15817 13.8649 4.15817 10.5012C4.15817 7.5285 6.59929 5.11008 9.59978 5.11008C12.6003 5.11008 15.0414 7.5285 15.0414 10.5035C15.0414 10.5122 15.0415 10.5208 15.0419 10.5294C15.0446 13.8797 15.5276 16.518 16.4777 18.371C16.6022 18.6136 16.7274 18.8282 16.8503 19.0177H12.4625Z" fill="#8D8D8D"/>
<circle cx="17.2434" cy="7.53539" r="7.53539" fill="#FF4D00"/>
<path d="M16.51 6.64C16.51 7.14 16.4333 7.61333 16.28 8.06C16.1333 8.5 15.94 8.90667 15.7 9.28C15.46 9.64667 15.19 9.97667 14.89 10.27C14.5967 10.5567 14.3033 10.8 14.01 11H12.23C12.6367 10.7067 13.0033 10.4233 13.33 10.15C13.6567 9.87667 13.94 9.6 14.18 9.32C14.4267 9.04 14.6267 8.75 14.78 8.45C14.94 8.14333 15.06 7.81333 15.14 7.46L15.06 7.44C14.9933 7.57333 14.9133 7.70333 14.82 7.83C14.7333 7.95667 14.6267 8.06667 14.5 8.16C14.3733 8.25333 14.2267 8.33 14.06 8.39C13.8933 8.44333 13.7 8.47 13.48 8.47C13.1867 8.47 12.9167 8.42 12.67 8.32C12.4233 8.22 12.2067 8.07667 12.02 7.89C11.84 7.69667 11.6967 7.47 11.59 7.21C11.49 6.94333 11.44 6.64333 11.44 6.31C11.44 5.95667 11.5 5.63333 11.62 5.34C11.74 5.04667 11.91 4.79333 12.13 4.58C12.35 4.36667 12.6133 4.2 12.92 4.08C13.2333 3.96 13.5833 3.9 13.97 3.9C14.37 3.9 14.7267 3.96667 15.04 4.1C15.3533 4.22667 15.62 4.41 15.84 4.65C16.06 4.88333 16.2267 5.17 16.34 5.51C16.4533 5.84333 16.51 6.22 16.51 6.64ZM13.97 7.45C14.3433 7.45 14.6333 7.35 14.84 7.15C15.0467 6.94333 15.15 6.65 15.15 6.27V6.12C15.15 5.74 15.0467 5.45 14.84 5.25C14.6333 5.04333 14.3433 4.94 13.97 4.94C13.6033 4.94 13.3133 5.04333 13.1 5.25C12.8933 5.45 12.79 5.74 12.79 6.12V6.27C12.79 6.65 12.8933 6.94333 13.1 7.15C13.3133 7.35 13.6033 7.45 13.97 7.45ZM19.4361 10.37V8.46H17.6661V7.43H19.4361V5.51H20.5561V7.43H22.3261V8.46H20.5561V10.37H19.4361Z" fill="white"/>
</svg>
