<svg width="23" height="25" viewBox="0 0 23 25" fill="none" xmlns="http://www.w3.org/2000/svg">
<path fill-rule="evenodd" clip-rule="evenodd" d="M14.0487 6.21181C14.0487 8.49414 12.1985 10.3443 9.91619 10.3443C7.63386 10.3443 5.78366 8.49414 5.78366 6.21181C5.78366 3.92947 7.63386 2.07927 9.91619 2.07927C12.1985 2.07927 14.0487 3.92947 14.0487 6.21181ZM16.128 6.21181C16.128 9.64249 13.3469 12.4236 9.91619 12.4236C6.48551 12.4236 3.70439 9.64249 3.70439 6.21181C3.70439 2.78112 6.48551 0 9.91619 0C13.3469 0 16.128 2.78112 16.128 6.21181ZM20.2316 9.99996C20.2316 9.49468 19.822 9.08508 19.3167 9.08508C18.8114 9.08508 18.4018 9.49468 18.4018 9.99996V11.3621H17.0397C16.5344 11.3621 16.1248 11.7717 16.1248 12.277C16.1248 12.7823 16.5344 13.1919 17.0397 13.1919H18.4018V14.5743C18.4018 15.0796 18.8114 15.4892 19.3167 15.4892C19.822 15.4892 20.2316 15.0796 20.2316 14.5743V13.1919H21.614C22.1193 13.1919 22.5289 12.7823 22.5289 12.277C22.5289 11.7717 22.1193 11.3621 21.614 11.3621H20.2316V9.99996ZM4.33492 12.1697C4.70479 11.7305 4.6486 11.0746 4.2094 10.7048C3.7702 10.3349 3.11432 10.3911 2.74444 10.8303L2.12534 11.5654C0.752731 13.1953 0 15.2576 0 17.3884V20.5048C0 22.457 1.58263 24.0397 3.53491 24.0397H16.5445C18.4967 24.0397 20.0794 22.457 20.0794 20.5048V17.5C20.0794 16.9258 19.6139 16.4603 19.0397 16.4603C18.4655 16.4603 18 16.9258 18 17.5V20.5048C18 21.3086 17.3483 21.9603 16.5445 21.9603H3.53491C2.73103 21.9603 2.07936 21.3086 2.07936 20.5048V17.3884C2.07936 15.7477 2.65894 14.1598 3.71581 12.9049L4.33492 12.1697Z" fill="#8D8D8D"/>
</svg>
