<svg width="35" height="40" viewBox="0 0 35 40" fill="none" xmlns="http://www.w3.org/2000/svg">
<path fill-rule="evenodd" clip-rule="evenodd" d="M29.3413 10.9056C32.3529 10.9056 34.7942 8.46432 34.7942 5.45281C34.7942 2.44131 32.3529 0 29.3413 0C26.3298 0 23.8885 2.44131 23.8885 5.45281C23.8885 8.46432 26.3298 10.9056 29.3413 10.9056ZM30.6397 20.2535C30.6397 25.4161 26.4546 29.6012 21.2921 29.6012C16.1295 29.6012 11.9444 25.4161 11.9444 20.2535C11.9444 15.0909 16.1295 10.9058 21.2921 10.9058C26.4546 10.9058 30.6397 15.0909 30.6397 20.2535ZM10.9056 21.0325C10.9056 24.044 8.46432 26.4853 5.45281 26.4853C2.44131 26.4853 0 24.044 0 21.0325C0 18.021 2.44131 15.5796 5.45281 15.5796C8.46432 15.5796 10.9056 18.021 10.9056 21.0325ZM34.7942 34.5344C34.7942 37.5459 32.3529 39.9872 29.3413 39.9872C26.3298 39.9872 23.8885 37.5459 23.8885 34.5344C23.8885 31.5228 26.3298 29.0815 29.3413 29.0815C32.3529 29.0815 34.7942 31.5228 34.7942 34.5344ZM18.6955 17.3972C18.6955 16.967 18.3468 16.6182 17.9166 16.6182C17.4863 16.6182 17.1376 16.967 17.1376 17.3972V20.5131C17.1376 22.8076 18.9976 24.6676 21.2921 24.6676C23.5866 24.6676 25.4466 22.8076 25.4466 20.5131V17.3972C25.4466 16.967 25.0979 16.6182 24.6677 16.6182C24.2375 16.6182 23.8887 16.967 23.8887 17.3972V20.5131C23.8887 21.9471 22.7262 23.1096 21.2921 23.1096C19.8581 23.1096 18.6955 21.9471 18.6955 20.5131V17.3972Z" fill="#05C731"/>
<path fill-rule="evenodd" clip-rule="evenodd" d="M12.7372 21.7046L9.71351 21.541L9.82577 19.4667L12.8495 19.6304L12.7372 21.7046Z" fill="#05C731"/>
<path fill-rule="evenodd" clip-rule="evenodd" d="M25.5821 30.7336L23.9285 28.1969L25.6687 27.0625L27.3223 29.5993L25.5821 30.7336Z" fill="#05C731"/>
<path fill-rule="evenodd" clip-rule="evenodd" d="M27.9609 10.403L26.394 12.9941L24.6164 11.9192L26.1834 9.32804L27.9609 10.403Z" fill="#05C731"/>
</svg>
