<svg width="308" height="354" viewBox="0 0 308 354" fill="none" xmlns="http://www.w3.org/2000/svg">
<path fill-rule="evenodd" clip-rule="evenodd" d="M308 48.2687C308 74.9267 286.389 96.5373 259.731 96.5373C233.073 96.5373 211.462 74.9267 211.462 48.2687C211.462 21.6106 233.073 0 259.731 0C286.389 0 308 21.6106 308 48.2687ZM188.478 262.03C234.178 262.03 271.225 224.983 271.225 179.284C271.225 133.584 234.178 96.5373 188.478 96.5373C142.779 96.5373 105.732 133.584 105.732 179.284C105.732 224.983 142.779 262.03 188.478 262.03ZM48.2687 234.448C74.9267 234.448 96.5373 212.837 96.5373 186.179C96.5373 159.521 74.9267 137.91 48.2687 137.91C21.6106 137.91 0 159.521 0 186.179C0 212.837 21.6106 234.448 48.2687 234.448ZM259.731 353.97C286.389 353.97 308 332.36 308 305.702C308 279.044 286.389 257.433 259.731 257.433C233.073 257.433 211.462 279.044 211.462 305.702C211.462 332.36 233.073 353.97 259.731 353.97Z" fill="#F9F9F9"/>
<path fill-rule="evenodd" clip-rule="evenodd" d="M158.597 147.104C162.405 147.104 165.492 150.192 165.492 154V181.582C165.492 194.276 175.783 204.567 188.477 204.567C201.172 204.567 211.462 194.276 211.462 181.582V154C211.462 150.192 214.55 147.104 218.358 147.104C222.166 147.104 225.253 150.192 225.253 154V181.582C225.253 201.893 208.788 218.358 188.477 218.358C168.166 218.358 151.701 201.893 151.701 181.582V154C151.701 150.192 154.788 147.104 158.597 147.104Z" fill="white"/>
<path fill-rule="evenodd" clip-rule="evenodd" d="M112.753 192.13L85.9869 190.681L86.9806 172.32L113.746 173.768L112.753 192.13Z" fill="#F9F9F9"/>
<path fill-rule="evenodd" clip-rule="evenodd" d="M226.453 272.056L211.815 249.6L227.22 239.559L241.857 262.014L226.453 272.056Z" fill="#F9F9F9"/>
<path fill-rule="evenodd" clip-rule="evenodd" d="M247.516 92.0891L233.645 115.026L217.91 105.511L231.781 82.5739L247.516 92.0891Z" fill="#F9F9F9"/>
</svg>
